<svg viewBox="149.5833282470703 465.3833312988281 624.0166625976562 323.8500061035156" height="323.8500061035156" width="624.0166625976562" xmlns:svgjs="http://svgjs.com/svgjs" xmlns:xlink="http://www.w3.org/1999/xlink" version="1.1" xmlns="http://www.w3.org/2000/svg" id="drawing"><defs id="SvgjsDefs1001"></defs><g id="SvgjsG1007"><path fill="#ffffff" fill-opacity="1" d="M149.5833282470703 465.3833312988281H773.5999908447266V789.2333374023438H149.5833282470703V465.3833312988281Z " id="SvgjsPath1008"></path><g id="SvgjsG1009"><g opacity="1" transform="translate(173.59999084472656 705.4000015258789)" id="SvgjsG1010"><path opacity="1" fill="#6666ff" stroke-width="2" stroke="#323232" stroke-dasharray="none" d="M0 0L576.0000000000001 0L576.0000000000001 59.800018310546875L0 59.800018310546875Z " id="SvgjsPath1011"></path><g fill="#ffffff" transform="matrix(1 0 0 1 10 21.775009155273438)" id="SvgjsG1012"><text y="13" x="278.00000000000006" text-decoration="blink" text-anchor="middle" font-style="normal" font-weight="normal" font-size="13" fill="#000000" font-family="微软雅黑,黑体,Arial,SimSun" id="SvgjsText1013">MMAP</text></g></g><g opacity="1" transform="translate(173.59999084472656 562)" id="SvgjsG1014"><path opacity="1" fill="#6666ff" stroke-width="2" stroke="#323232" stroke-dasharray="none" d="M0 0L152.20001220703125 0L152.20001220703125 59.800018310546875L0 59.800018310546875Z " id="SvgjsPath1015"></path><g fill="#ffffff" transform="matrix(1 0 0 1 10 21.775009155273438)" id="SvgjsG1016"><text y="13" x="66.10000610351562" text-decoration="blink" text-anchor="middle" font-style="normal" font-weight="normal" font-size="13" fill="#000000" font-family="微软雅黑,黑体,Arial,SimSun" id="SvgjsText1017">COW</text></g></g><g opacity="1" transform="translate(383.1999969482422 562)" id="SvgjsG1018"><path opacity="1" fill="#6666ff" stroke-width="2" stroke="#323232" stroke-dasharray="none" d="M0 0L152.20001220703125 0L152.20001220703125 59.800018310546875L0 59.800018310546875Z " id="SvgjsPath1019"></path><g fill="#ffffff" transform="matrix(1 0 0 1 10 21.775009155273438)" id="SvgjsG1020"><text y="13" x="66.10000610351562" text-decoration="blink" text-anchor="middle" font-style="normal" font-weight="normal" font-size="13" fill="#000000" font-family="微软雅黑,黑体,Arial,SimSun" id="SvgjsText1021">MVCC</text></g></g><g opacity="1" transform="translate(617.2666575113933 634.3999824523926)" id="SvgjsG1022"><path opacity="1" fill="#6666ff" stroke-width="2" stroke="#323232" stroke-dasharray="none" d="M0 0L129.5333455403645 0L129.5333455403645 59.800018310546875L0 59.800018310546875Z " id="SvgjsPath1023"></path><g fill="#ffffff" transform="matrix(1 0 0 1 10 21.775009155273438)" id="SvgjsG1024"><text y="13" x="54.766672770182254" text-decoration="blink" text-anchor="middle" font-style="normal" font-weight="normal" font-size="13" fill="#000000" font-family="微软雅黑,黑体,Arial,SimSun" id="SvgjsText1025">LockTable</text></g></g><g opacity="1" transform="translate(592.8000030517578 562)" id="SvgjsG1026"><path opacity="1" fill="#6666ff" stroke-width="2" stroke="#323232" stroke-dasharray="none" d="M0 0L152.20001220703125 0L152.20001220703125 59.800018310546875L0 59.800018310546875Z " id="SvgjsPath1027"></path><g fill="#ffffff" transform="matrix(1 0 0 1 10 21.775009155273438)" id="SvgjsG1028"><text y="13" x="66.10000610351562" text-decoration="blink" text-anchor="middle" font-style="normal" font-weight="normal" font-size="13" fill="#000000" font-family="微软雅黑,黑体,Arial,SimSun" id="SvgjsText1029">Transaction</text></g></g><g opacity="1" transform="translate(173.59999084472656 633.599983215332)" id="SvgjsG1030"><path opacity="1" fill="#6666ff" stroke-width="2" stroke="#323232" stroke-dasharray="none" d="M0 0L419.20001220703125 0L419.20001220703125 61.40001678466797L0 61.40001678466797Z " id="SvgjsPath1031"></path><g fill="#ffffff" transform="matrix(1 0 0 1 10 22.575008392333984)" id="SvgjsG1032"><text y="13" x="199.60000610351562" text-decoration="blink" text-anchor="middle" font-style="normal" font-weight="normal" font-size="13" fill="#000000" font-family="微软雅黑,黑体,Arial,SimSun" id="SvgjsText1033">B+ tree</text></g></g><g opacity="1" transform="translate(173.59999084472656 489.4000015258789)" id="SvgjsG1034"><path opacity="1" fill="#6666ff" stroke-width="2" stroke="#323232" stroke-dasharray="none" d="M0 0L576.0000000000001 0L576.0000000000001 59.800018310546875L0 59.800018310546875Z " id="SvgjsPath1035"></path><g fill="#ffffff" transform="matrix(1 0 0 1 10 21.775009155273438)" id="SvgjsG1036"><text y="13" x="278.00000000000006" text-decoration="blink" text-anchor="middle" font-style="normal" font-weight="normal" font-size="13" fill="#000000" font-family="微软雅黑,黑体,Arial,SimSun" id="SvgjsText1037">put,commit,get</text></g></g></g></g></svg>