<?xml version="1.0" encoding="utf-8" ?>
<!DOCTYPE svg PUBLIC "-//W3C//DTD SVG 1.1//EN" "http://www.w3.org/Graphics/SVG/1.1/DTD/svg11.dtd">
<svg height="111" version="1.1" width="436" xmlns="http://www.w3.org/2000/svg">
<rect fill="#ffffff" height="56" stroke="#ffffff" stroke-width="1" width="96" x="14" y="14"/>
<rect fill="none" height="56" stroke="#000000" stroke-width="1" width="96" x="14" y="14"/>
<text font-family="Arial" font-size="12" x="39" y="27">
Drawing</text>
<rect fill="#000000" height="1" stroke="#000000" stroke-width="1" width="96" x="14" y="37"/>
<text font-family="Arial" font-size="12" x="18" y="51">
Draw()</text>
<polygon fill="#ffffff" points="278,38 411,38 421,48 421,96 278,96 278,38" stroke="#ffffff" stroke-width="1"/>
<polyline fill="none" points="278,38 411,38 421,48 421,96 278,96 278,38" stroke="#000000" stroke-width="1"/>
<polygon fill="#b2b2b2" points="411,38 421,48 411,48 411,38" stroke="#b2b2b2" stroke-width="1"/>
<polyline fill="none" points="411,38 421,48 411,48 411,38" stroke="#000000" stroke-width="1"/>
<text font-family="Dialog" font-size="12" x="281" y="53">
for each shap {</text>
<text font-family="Dialog" font-size="12" x="281" y="68">
shape-&gt;Draw()</text>
<text font-family="Dialog" font-size="12" x="281" y="83">
}</text>
<line fill="#000000" stroke="#000000" stroke-width="1" x1="109" x2="114" y1="54" y2="54"/>
<line fill="#000000" stroke="#000000" stroke-width="1" x1="119" x2="124" y1="54" y2="54"/>
<line fill="#000000" stroke="#000000" stroke-width="1" x1="129" x2="134" y1="54" y2="54"/>
<line fill="#000000" stroke="#000000" stroke-width="1" x1="139" x2="144" y1="54" y2="54"/>
<line fill="#000000" stroke="#000000" stroke-width="1" x1="149" x2="154" y1="54" y2="54"/>
<line fill="#000000" stroke="#000000" stroke-width="1" x1="159" x2="164" y1="54" y2="54"/>
<line fill="#000000" stroke="#000000" stroke-width="1" x1="169" x2="174" y1="54" y2="54"/>
<line fill="#000000" stroke="#000000" stroke-width="1" x1="179" x2="184" y1="54" y2="54"/>
<line fill="#000000" stroke="#000000" stroke-width="1" x1="189" x2="194" y1="54" y2="54"/>
<line fill="#000000" stroke="#000000" stroke-width="1" x1="199" x2="204" y1="54" y2="54"/>
<line fill="#000000" stroke="#000000" stroke-width="1" x1="209" x2="214" y1="54" y2="54"/>
<line fill="#000000" stroke="#000000" stroke-width="1" x1="219" x2="224" y1="54" y2="54"/>
<line fill="#000000" stroke="#000000" stroke-width="1" x1="229" x2="234" y1="54" y2="54"/>
<line fill="#000000" stroke="#000000" stroke-width="1" x1="239" x2="244" y1="54" y2="54"/>
<line fill="#000000" stroke="#000000" stroke-width="1" x1="249" x2="254" y1="54" y2="54"/>
<line fill="#000000" stroke="#000000" stroke-width="1" x1="259" x2="264" y1="54" y2="54"/>
<line fill="#000000" stroke="#000000" stroke-width="1" x1="269" x2="274" y1="54" y2="54"/>
</svg>
