<?xml version="1.0" encoding="UTF-8" standalone="no"?>
<!DOCTYPE svg PUBLIC "-//W3C//DTD SVG 20010904//EN"
              "http://www.w3.org/TR/2001/REC-SVG-20010904/DTD/svg10.dtd">
<svg xmlns="http://www.w3.org/2000/svg"
	xmlns:xlink="http://www.w3.org/1999/xlink"
	width="495px" height="525px"
	viewBox="0 0 990 1050"
>
<defs>
<style type="text/css">
text {
	fill: #000;
	font-size: 60px;
	text-anchor: start;
	font-family: sans;
	font-style: normal; font-weight: normal;
}
polygon {
	fill: #444;
	stroke: none;
}
line,path {
	stroke: #777;
	fill: none;
}
</style>
</defs>
<g transform="translate(-80,-80)">
	<g transform="scale(100)" style="stroke-width: 0.08; fill: #fff; stroke: #000">
		<!-- arrows -->
		<line x1="5.161" y1="1.938" x2="3.345" y2="3.754"/>
		<polygon points="3.168,3.577 2.991,4.108 3.522,3.931 "/>
		<line x1="5.938" y1="1.938" x2="7.754" y2="3.754"/>
		<polygon points="7.577,3.931 8.108,4.108 7.931,3.577 "/>
		<line x1="5.55" y1="2.1" x2="5.55" y2="3.425"/>
		<polygon points="5.3,3.425 5.55,3.925 5.8,3.425 "/>
		<!--
		<path style="stroke-dasharray: 0.2" d="M 3.445,5.212 A 5.7,5.7 0 0 0 8.131,4.939"/>
		-->
		<path style="stroke-dasharray:0.2" 
			d="M 3.47,5.23 C 4.22,5.52 5.35,6.38 6.926,4.84 7.17,4.60 7.68,4.456 8.02,4.49" />		
		<polygon points="3.563,4.992 3.004,4.974 3.325,5.432 "/>
		<path style="stroke-dasharray: 0.2" d="M 4.80,1.55 A 3.6,3.6 0 0 0 2.55,4.00"/>
		<polygon transform="translate(4.95,1.45) rotate(65) translate(-4.95,-1.55)" points="4.70,2.05 4.95,1.55  5.20,2.05 "/>
		<line style="stroke-dasharray: 0.2" x1="3.938" y1="7.161" x2="7.652" y2="5.206"/>
		<polygon points="7.768,5.427 8.094,4.973 7.535,4.985 "/>
		<line x1="8.55" y1="5.1" x2="9.242" y2="6.485"/>
		<polygon points="9.019,6.597 9.466,6.932 9.466,6.373 "/>
		<line x1="2.55" y1="5.1" x2="3.282" y2="6.491"/>
		<polygon points="3.060,6.607 3.515,6.933 3.503,6.374 "/>
		<line x1="3.55" y1="8.1" x2="4.242" y2="9.485"/>
		<polygon points="4.019,9.597 4.466,9.932 4.466,9.373 "/>
		<line x1="2.55" y1="5.1" x2="1.778" y2="6.496"/>
		<polygon points="1.559,6.375 1.536,6.934 1.996,6.617 "/>
		<line x1="3.55" y1="8.1" x2="2.778" y2="9.496"/>
		<polygon points="2.559,9.375 2.536,9.934 2.996,9.617 "/>
		<line x1="8.55" y1="5.1" x2="7.778" y2="6.496"/>
		<polygon points="7.559,6.375 7.536,6.934 7.996,6.617 "/>

		<!-- nodes -->
		<ellipse cx="2.55" cy="4.55" rx="0.55" ry="0.55"/>
		<rect x="5.05" y="4" width="1" height="1"/>
		<ellipse cx="5.55" cy="1.55" rx="0.55" ry="0.55"/>
		<ellipse cx="8.55" cy="4.55" rx="0.55" ry="0.55"/>
		<ellipse cx="3.55" cy="7.55" rx="0.55" ry="0.55"/>
		<rect x="1" y="7" width="1" height="1"/>
		<rect x="7" y="7" width="1" height="1"/>
		<rect x="9" y="7" width="1" height="1"/>
		<rect x="2" y="10" width="1" height="1"/>
		<rect x="4" y="10" width="1" height="1"/>
	</g>

	<!-- text -->
	<text x="235" y="1075">3</text>
	<text x="430" y="1075">1</text>
	<text x="135" y="780">5</text>
	<text x="350" y="290">A</text>
	<text x="720" y="290">NA</text>
	<text x="935" y="630">NA$</text>
	<text x="355" y="640">NA</text>
	<text x="115" y="635">$</text>
	<text x="715" y="640">$</text>
	<text x="420" y="335">BANANA$</text>
	<text x="730" y="775">4</text>
	<text x="935" y="775">2</text>
	<text x="535" y="470">0</text>
	<text x="435" y="910">NA$</text>
	<text x="235" y="910">$</text>
</g>
</svg>
