<?xml version="1.0" encoding="utf-8" ?>
<!DOCTYPE svg PUBLIC "-//W3C//DTD SVG 1.1//EN" "http://www.w3.org/Graphics/SVG/1.1/DTD/svg11.dtd">
<svg height="167" version="1.1" width="446" xmlns="http://www.w3.org/2000/svg">
<rect fill="#ffffff" height="27" stroke="#ffffff" stroke-width="1" width="96" x="14" y="33"/>
<rect fill="none" height="27" stroke="#000000" stroke-width="1" width="96" x="14" y="33"/>
<text font-family="Arial" font-size="12" x="39" y="46">
Drawing</text>
<rect fill="#ffffff" height="27" stroke="#ffffff" stroke-width="1" width="88" x="182" y="33"/>
<rect fill="none" height="27" stroke="#000000" stroke-width="1" width="88" x="182" y="33"/>
<text font-family="Arial" font-size="12" x="208" y="46">
Shape</text>
<rect fill="#ffffff" height="27" stroke="#ffffff" stroke-width="1" width="75" x="190" y="105"/>
<rect fill="none" height="27" stroke="#000000" stroke-width="1" width="75" x="190" y="105"/>
<text font-family="Arial" font-size="12" x="197" y="118">
LineShape</text>
<polyline fill="none" points="230,105 230,59" stroke="#000000" stroke-width="1"/>
<polygon fill="#ffffff" points="230,59 237,71 223,71" stroke="#ffffff" stroke-width="1"/>
<polygon fill="none" points="230,59 237,71 223,71" stroke="#000000" stroke-width="1"/>
<rect fill="#ffffff" height="27" stroke="#ffffff" stroke-width="1" width="95" x="14" y="105"/>
<rect fill="none" height="27" stroke="#000000" stroke-width="1" width="95" x="14" y="105"/>
<text font-family="Arial" font-size="12" x="26" y="118">
CreationTool</text>
<line fill="#000000" stroke="#000000" stroke-width="1" x1="108" x2="113" y1="121" y2="121"/>
<line fill="#000000" stroke="#000000" stroke-width="1" x1="118" x2="123" y1="121" y2="121"/>
<line fill="#000000" stroke="#000000" stroke-width="1" x1="128" x2="133" y1="121" y2="121"/>
<line fill="#000000" stroke="#000000" stroke-width="1" x1="138" x2="143" y1="121" y2="121"/>
<line fill="#000000" stroke="#000000" stroke-width="1" x1="148" x2="153" y1="121" y2="121"/>
<line fill="#000000" stroke="#000000" stroke-width="1" x1="158" x2="163" y1="121" y2="121"/>
<line fill="#000000" stroke="#000000" stroke-width="1" x1="168" x2="173" y1="121" y2="121"/>
<line fill="#000000" stroke="#000000" stroke-width="1" x1="178" x2="183" y1="121" y2="121"/>
<line fill="#000000" stroke="#000000" stroke-width="1" x1="188" x2="190" y1="121" y2="121"/>
<line fill="#000000" stroke="#000000" stroke-width="1" x1="178" x2="190" y1="128" y2="121"/>
<line fill="#000000" stroke="#000000" stroke-width="1" x1="178" x2="190" y1="114" y2="121"/>
<rect fill="#ffffff" height="27" stroke="#ffffff" stroke-width="1" width="66" x="366" y="105"/>
<rect fill="none" height="27" stroke="#000000" stroke-width="1" width="66" x="366" y="105"/>
<text font-family="Arial" font-size="12" x="384" y="118">
Color</text>
<polyline fill="none" points="264,117 366,117" stroke="#000000" stroke-width="1"/>
<line fill="#000000" stroke="#000000" stroke-width="1" x1="354" x2="366" y1="124" y2="117"/>
<line fill="#000000" stroke="#000000" stroke-width="1" x1="354" x2="366" y1="110" y2="117"/>
<polyline fill="none" points="109,49 182,49" stroke="#000000" stroke-width="1"/>
<polygon fill="#ffffff" points="109,49 119,44 129,49 119,54" stroke="#ffffff" stroke-width="1"/>
<polygon fill="none" points="109,49 119,44 129,49 119,54" stroke="#000000" stroke-width="1"/>
<line fill="#000000" stroke="#000000" stroke-width="1" x1="170" x2="182" y1="56" y2="49"/>
<line fill="#000000" stroke="#000000" stroke-width="1" x1="170" x2="182" y1="42" y2="49"/>
</svg>
